<mxfile host="app.diagrams.net" modified="2023-12-09T16:08:50.247Z" agent="Mozilla/5.0 (Macintosh; Intel Mac OS X 10_15_7) AppleWebKit/537.36 (KHTML, like Gecko) Chrome/120.0.0.0 Safari/537.36" etag="YXpUQeCuTB5dg076Bp44" version="22.1.7" type="device">
  <diagram id="C5RBs43oDa-KdzZeNtuy" name="Page-1">
    <mxGraphModel dx="1434" dy="822" grid="1" gridSize="10" guides="1" tooltips="1" connect="1" arrows="1" fold="1" page="1" pageScale="1" pageWidth="827" pageHeight="1169" math="0" shadow="0">
      <root>
        <mxCell id="WIyWlLk6GJQsqaUBKTNV-0" />
        <mxCell id="WIyWlLk6GJQsqaUBKTNV-1" parent="WIyWlLk6GJQsqaUBKTNV-0" />
        <mxCell id="XjpTGNjtXhcYihIAmIsw-0" value="Puzzle" style="swimlane;fontStyle=1;align=center;verticalAlign=top;childLayout=stackLayout;horizontal=1;startSize=26;horizontalStack=0;resizeParent=1;resizeParentMax=0;resizeLast=0;collapsible=1;marginBottom=0;whiteSpace=wrap;html=1;" parent="WIyWlLk6GJQsqaUBKTNV-1" vertex="1">
          <mxGeometry x="290" y="40" width="310" height="310" as="geometry" />
        </mxCell>
        <mxCell id="XjpTGNjtXhcYihIAmIsw-1" value="-Score int;&lt;br&gt;-SymbolsLeft int;&lt;br&gt;-GridSize int;&lt;br&gt;-Grid: list[chr]&lt;br&gt;-AllowedPatterns: list[Pattern]&lt;br&gt;-AllowedSymbols: list[Chr]" style="text;strokeColor=none;fillColor=none;align=left;verticalAlign=top;spacingLeft=4;spacingRight=4;overflow=hidden;rotatable=0;points=[[0,0.5],[1,0.5]];portConstraint=eastwest;whiteSpace=wrap;html=1;" parent="XjpTGNjtXhcYihIAmIsw-0" vertex="1">
          <mxGeometry y="26" width="310" height="164" as="geometry" />
        </mxCell>
        <mxCell id="XjpTGNjtXhcYihIAmIsw-2" value="" style="line;strokeWidth=1;fillColor=none;align=left;verticalAlign=middle;spacingTop=-1;spacingLeft=3;spacingRight=3;rotatable=0;labelPosition=right;points=[];portConstraint=eastwest;strokeColor=inherit;" parent="XjpTGNjtXhcYihIAmIsw-0" vertex="1">
          <mxGeometry y="190" width="310" height="8" as="geometry" />
        </mxCell>
        <mxCell id="XjpTGNjtXhcYihIAmIsw-3" value="-LoadPuzzle(str)&lt;br&gt;+ AttemptPuzzle(): int&lt;br&gt;- GetCell(list[chr],list[chr])&lt;br&gt;+ CheckforMatchWithPattern(list[chr],list[chr]): int&lt;br&gt;- GetSymbolFromUser: chr&lt;br&gt;-CreateHorizontalLine: str&lt;br&gt;+DisplayPuzzle():" style="text;strokeColor=none;fillColor=none;align=left;verticalAlign=top;spacingLeft=4;spacingRight=4;overflow=hidden;rotatable=0;points=[[0,0.5],[1,0.5]];portConstraint=eastwest;whiteSpace=wrap;html=1;" parent="XjpTGNjtXhcYihIAmIsw-0" vertex="1">
          <mxGeometry y="198" width="310" height="112" as="geometry" />
        </mxCell>
        <mxCell id="XjpTGNjtXhcYihIAmIsw-10" value="Cell" style="swimlane;fontStyle=1;align=center;verticalAlign=top;childLayout=stackLayout;horizontal=1;startSize=26;horizontalStack=0;resizeParent=1;resizeParentMax=0;resizeLast=0;collapsible=1;marginBottom=0;whiteSpace=wrap;html=1;" parent="WIyWlLk6GJQsqaUBKTNV-1" vertex="1">
          <mxGeometry x="60" y="390" width="250" height="230" as="geometry" />
        </mxCell>
        <mxCell id="XjpTGNjtXhcYihIAmIsw-11" value="+Symbol: chr&lt;br&gt;-SymbolNotAllowed: list[chr]" style="text;strokeColor=none;fillColor=none;align=left;verticalAlign=top;spacingLeft=4;spacingRight=4;overflow=hidden;rotatable=0;points=[[0,0.5],[1,0.5]];portConstraint=eastwest;whiteSpace=wrap;html=1;" parent="XjpTGNjtXhcYihIAmIsw-10" vertex="1">
          <mxGeometry y="26" width="250" height="94" as="geometry" />
        </mxCell>
        <mxCell id="XjpTGNjtXhcYihIAmIsw-12" value="" style="line;strokeWidth=1;fillColor=none;align=left;verticalAlign=middle;spacingTop=-1;spacingLeft=3;spacingRight=3;rotatable=0;labelPosition=right;points=[];portConstraint=eastwest;strokeColor=inherit;" parent="XjpTGNjtXhcYihIAmIsw-10" vertex="1">
          <mxGeometry y="120" width="250" height="8" as="geometry" />
        </mxCell>
        <mxCell id="XjpTGNjtXhcYihIAmIsw-13" value="+GetSymbol(): chr&lt;br&gt;+IsEmpty(): Bool&lt;br&gt;+ChangeSymbolInCell(chr)&lt;br&gt;+CheckSymbolAllowed(chr): bool&lt;br&gt;+AddToNotAllowedSymbol(chr):&amp;nbsp;&lt;br&gt;+UpdateCell" style="text;strokeColor=none;fillColor=none;align=left;verticalAlign=top;spacingLeft=4;spacingRight=4;overflow=hidden;rotatable=0;points=[[0,0.5],[1,0.5]];portConstraint=eastwest;whiteSpace=wrap;html=1;" parent="XjpTGNjtXhcYihIAmIsw-10" vertex="1">
          <mxGeometry y="128" width="250" height="102" as="geometry" />
        </mxCell>
        <mxCell id="XjpTGNjtXhcYihIAmIsw-14" value="" style="endArrow=diamondThin;endFill=0;endSize=24;html=1;rounded=0;exitX=0.581;exitY=-0.021;exitDx=0;exitDy=0;exitPerimeter=0;entryX=0.783;entryY=1.036;entryDx=0;entryDy=0;entryPerimeter=0;" parent="WIyWlLk6GJQsqaUBKTNV-1" edge="1">
          <mxGeometry width="160" relative="1" as="geometry">
            <mxPoint x="502.02000000000004" y="579.962" as="sourcePoint" />
            <mxPoint x="420.00000000000006" y="350.00199999999995" as="targetPoint" />
            <Array as="points">
              <mxPoint x="420.06" y="405.97" />
            </Array>
          </mxGeometry>
        </mxCell>
        <mxCell id="QoMtUFIqzg1BwkQG5pag-0" value="Pattern" style="swimlane;fontStyle=1;align=center;verticalAlign=top;childLayout=stackLayout;horizontal=1;startSize=26;horizontalStack=0;resizeParent=1;resizeParentMax=0;resizeLast=0;collapsible=1;marginBottom=0;whiteSpace=wrap;html=1;" vertex="1" parent="WIyWlLk6GJQsqaUBKTNV-1">
          <mxGeometry x="430" y="580" width="160" height="154" as="geometry" />
        </mxCell>
        <mxCell id="QoMtUFIqzg1BwkQG5pag-1" value="-Symbol: chr&lt;br&gt;-PatternSequence: str" style="text;strokeColor=none;fillColor=none;align=left;verticalAlign=top;spacingLeft=4;spacingRight=4;overflow=hidden;rotatable=0;points=[[0,0.5],[1,0.5]];portConstraint=eastwest;whiteSpace=wrap;html=1;" vertex="1" parent="QoMtUFIqzg1BwkQG5pag-0">
          <mxGeometry y="26" width="160" height="94" as="geometry" />
        </mxCell>
        <mxCell id="QoMtUFIqzg1BwkQG5pag-2" value="" style="line;strokeWidth=1;fillColor=none;align=left;verticalAlign=middle;spacingTop=-1;spacingLeft=3;spacingRight=3;rotatable=0;labelPosition=right;points=[];portConstraint=eastwest;strokeColor=inherit;" vertex="1" parent="QoMtUFIqzg1BwkQG5pag-0">
          <mxGeometry y="120" width="160" height="8" as="geometry" />
        </mxCell>
        <mxCell id="QoMtUFIqzg1BwkQG5pag-3" value="+ method(type): type" style="text;strokeColor=none;fillColor=none;align=left;verticalAlign=top;spacingLeft=4;spacingRight=4;overflow=hidden;rotatable=0;points=[[0,0.5],[1,0.5]];portConstraint=eastwest;whiteSpace=wrap;html=1;" vertex="1" parent="QoMtUFIqzg1BwkQG5pag-0">
          <mxGeometry y="128" width="160" height="26" as="geometry" />
        </mxCell>
        <mxCell id="QoMtUFIqzg1BwkQG5pag-4" value="Blocked Cell" style="swimlane;fontStyle=1;align=center;verticalAlign=top;childLayout=stackLayout;horizontal=1;startSize=26;horizontalStack=0;resizeParent=1;resizeParentMax=0;resizeLast=0;collapsible=1;marginBottom=0;whiteSpace=wrap;html=1;" vertex="1" parent="WIyWlLk6GJQsqaUBKTNV-1">
          <mxGeometry x="90" y="680" width="200" height="120" as="geometry" />
        </mxCell>
        <mxCell id="QoMtUFIqzg1BwkQG5pag-8" value="" style="endArrow=open;endFill=1;endSize=12;html=1;rounded=0;entryX=0.436;entryY=1.02;entryDx=0;entryDy=0;entryPerimeter=0;" edge="1" parent="QoMtUFIqzg1BwkQG5pag-4" target="XjpTGNjtXhcYihIAmIsw-13">
          <mxGeometry width="160" relative="1" as="geometry">
            <mxPoint x="80" as="sourcePoint" />
            <mxPoint x="240" as="targetPoint" />
          </mxGeometry>
        </mxCell>
        <mxCell id="QoMtUFIqzg1BwkQG5pag-5" value="+ Symbol: &quot;@&quot;" style="text;strokeColor=none;fillColor=none;align=left;verticalAlign=top;spacingLeft=4;spacingRight=4;overflow=hidden;rotatable=0;points=[[0,0.5],[1,0.5]];portConstraint=eastwest;whiteSpace=wrap;html=1;" vertex="1" parent="QoMtUFIqzg1BwkQG5pag-4">
          <mxGeometry y="26" width="200" height="26" as="geometry" />
        </mxCell>
        <mxCell id="QoMtUFIqzg1BwkQG5pag-6" value="" style="line;strokeWidth=1;fillColor=none;align=left;verticalAlign=middle;spacingTop=-1;spacingLeft=3;spacingRight=3;rotatable=0;labelPosition=right;points=[];portConstraint=eastwest;strokeColor=inherit;" vertex="1" parent="QoMtUFIqzg1BwkQG5pag-4">
          <mxGeometry y="52" width="200" height="8" as="geometry" />
        </mxCell>
        <mxCell id="QoMtUFIqzg1BwkQG5pag-7" value="+ CheckSymbolAllowed(chr):False" style="text;strokeColor=none;fillColor=none;align=left;verticalAlign=top;spacingLeft=4;spacingRight=4;overflow=hidden;rotatable=0;points=[[0,0.5],[1,0.5]];portConstraint=eastwest;whiteSpace=wrap;html=1;" vertex="1" parent="QoMtUFIqzg1BwkQG5pag-4">
          <mxGeometry y="60" width="200" height="60" as="geometry" />
        </mxCell>
        <mxCell id="QoMtUFIqzg1BwkQG5pag-9" value="(Is a)" style="text;html=1;align=center;verticalAlign=middle;resizable=0;points=[];autosize=1;strokeColor=none;fillColor=none;" vertex="1" parent="WIyWlLk6GJQsqaUBKTNV-1">
          <mxGeometry x="170" y="640" width="50" height="30" as="geometry" />
        </mxCell>
      </root>
    </mxGraphModel>
  </diagram>
</mxfile>
